# xmcd
#
# Track frame offsets:
#	150
#	18855
#	38445
#	58635
#	78287
#	99657
#	121060
#	145965
#	163622
#	179455
#	203607
#	226632
#	249350
#	269895
#	295985
#	317585
#
# Disc length: 4538 seconds
#
# Revision: 1
# Processed by: cddbd v1.4PL0 Copyright (c) Steve Scherf et al.
# Submitted via: audiograbber 1.80
#
DISCID=d011b810
DTITLE=Alleycats - Keemasan Terunggul 1978-1993
DYEAR=1900
DGENRE=
TTITLE0=Senandung Semalam
TTITLE1=Cahaya Keinsafan
TTITLE2=Mengapa Tak Dapat Menyinta
TTITLE3=Hingga Akhir Nanti
TTITLE4=Setahun Sudah Berlalu
TTITLE5=Noktah Bagi Cinta Ini
TTITLE6=Kerana
TTITLE7=Layang-Layang Terputus Talinya
TTITLE8=Sampaikan Salamku
TTITLE9=Aku Kerinduan
TTITLE10=Ku Kehilangan Dikau
TTITLE11=Penantian Yang Pahit
TTITLE12=Sejuta Kalau
TTITLE13=Warkah Usang Buat Kekasih
TTITLE14=Kenangan Cinta
TTITLE15=Hanya Tinggal Memori
EXTD=
EXTT0=
EXTT1=
EXTT2=
EXTT3=
EXTT4=
EXTT5=
EXTT6=
EXTT7=
EXTT8=
EXTT9=
EXTT10=
EXTT11=
EXTT12=
EXTT13=
EXTT14=
EXTT15=
PLAYORDER=
